PathFileType	3	(X/Y/Z)	walking_3__fused_aligned.trc
DataRate	CameraRate	NumFrames	NumMarkers	Units	OrigDataRate	OrigDataStartFrame	OrigNumFrames
100.0	100.0	15	19	mm	100.0	267	6307
Frame#	Time	pelvis			neck			head			hip_left			hip_right			knee_left			knee_right			ankle_left			ankle_right			heel_left			heel_right			toe_left			toe_right			shoulder_left			shoulder_right			elbow_left			elbow_right			wrist_left			wrist_right			
		X1	Y1	Z1	X2	Y2	Z2	X3	Y3	Z3	X4	Y4	Z4	X5	Y5	Z5	X6	Y6	Z6	X7	Y7	Z7	X8	Y8	Z8	X9	Y9	Z9	X10	Y10	Z10	X11	Y11	Z11	X12	Y12	Z12	X13	Y13	Z13	X14	Y14	Z14	X15	Y15	Z15	X16	Y16	Z16	X17	Y17	Z17	X18	Y18	Z18	X19	Y19	Z19	
267	2.66000	-37.833459	953.173368	-27.578288	-88.754058	1511.911579	76.947166	-93.873377	1590.949953	226.245311	42.001119	955.257142	-33.485873	-117.667860	951.089622	-21.670860	88.975789	534.266487	26.117480	-132.147215	536.483730	121.002000	60.965443	245.123246	-257.441110	-136.824925	118.512730	115.614906	50.466250	231.693031	-310.956593	-137.278056	64.488671	86.678465	70.903223	81.726818	-172.285811	-131.734044	79.138079	311.711343	96.833705	1498.193794	44.566813	-265.724158	1439.635347	54.597157	168.256368	1218.408649	39.879656	-278.162793	1146.797859	78.110655	44.649150	1124.805147	239.874751	-152.046241	1085.110201	282.352128
268	2.67000	-37.710962	953.322085	-27.419053	-88.049828	1511.945457	77.488813	-92.643150	1590.761363	227.044200	42.088586	955.236606	-32.972113	-117.510352	951.407589	-21.866136	88.596542	535.841127	35.570289	-133.469029	535.253982	111.636527	61.523900	243.783841	-238.619987	-138.376911	118.933641	98.178929	51.312692	229.375522	-291.246272	-138.738368	65.515877	68.424584	70.471723	84.118460	-151.021519	-133.999043	77.000827	293.209700	97.181208	1498.143326	43.607287	-265.082126	1439.475591	55.521874	169.387669	1218.663264	35.035103	-278.917777	1146.581849	77.242462	51.369879	1120.288908	232.150402	-154.291145	1080.143692	280.131682
269	2.68000	-37.588466	953.470801	-27.259819	-87.345598	1511.979336	78.030460	-91.412923	1590.572773	227.843089	42.176054	955.216071	-32.458353	-117.352843	951.725555	-22.061412	88.217294	537.415767	45.023099	-134.790843	534.024235	102.271055	62.082357	242.444436	-219.798864	-139.928897	119.354553	80.742952	52.159134	227.058014	-271.535952	-140.198681	66.543082	50.170703	70.040223	86.510102	-129.757226	-136.264042	74.863574	274.708058	97.528712	1498.092859	42.647761	-264.440094	1439.315834	56.446591	170.518969	1218.917880	30.190550	-279.672761	1146.365839	76.374268	58.090608	1115.772670	224.426052	-156.536050	1075.177183	277.911237
270	2.69000	-37.465969	953.619518	-27.100585	-86.641367	1512.013214	78.572107	-90.182697	1590.384184	228.641978	42.263521	955.195535	-31.944593	-117.195334	952.043521	-22.256688	87.838047	538.990407	54.475909	-136.112657	532.794488	92.905583	62.640814	241.105031	-200.977742	-141.480883	119.775464	63.306975	53.005575	224.740505	-251.825631	-141.658994	67.570288	31.916823	69.608723	88.901743	-108.492934	-138.529041	72.726321	256.206415	97.876215	1498.042391	41.688235	-263.798062	1439.156078	57.371307	171.650269	1219.172496	25.345997	-280.427745	1146.149829	75.506074	64.811337	1111.256431	216.701703	-158.780955	1070.210674	275.690791
271	2.70000	-37.343472	953.768235	-26.941351	-85.937137	1512.047093	79.113754	-88.952470	1590.195594	229.440867	42.350988	955.174999	-31.430832	-117.037826	952.361488	-22.451964	87.458800	540.565047	63.928719	-137.434471	531.564741	83.540111	63.199271	239.765626	-182.156619	-143.032870	120.196376	45.870998	53.852017	222.422997	-232.115310	-143.119307	68.597493	13.662942	69.177224	91.293385	-87.228641	-140.794040	70.589069	237.704772	98.223719	1497.991924	40.728710	-263.156030	1438.996322	58.296024	172.781569	1219.427111	20.501443	-281.182729	1145.933819	74.637880	71.532066	1106.740193	208.977353	-161.025860	1065.244165	273.470345
272	2.71000	-37.220976	953.916952	-26.782116	-85.232907	1512.080971	79.655402	-87.722243	1590.007004	230.239756	42.438455	955.154463	-30.917072	-116.880317	952.679454	-22.647240	87.079552	542.139687	73.381529	-138.756286	530.334994	74.174639	63.757728	238.426221	-163.335497	-144.584856	120.617287	28.435021	54.698459	220.105488	-212.404989	-144.579619	69.624699	-4.590939	68.745724	93.685026	-65.964349	-143.059039	68.451816	219.203130	98.571222	1497.941456	39.769184	-262.513997	1438.836566	59.220741	173.912870	1219.681727	15.656890	-281.937713	1145.717809	73.769686	78.252795	1102.223955	201.253004	-163.270764	1060.277655	271.249900
273	2.72000	-37.098479	954.065668	-26.622882	-84.528676	1512.114850	80.197049	-86.492016	1589.818414	231.038646	42.525922	955.133927	-30.403312	-116.722809	952.997420	-22.842516	86.700305	543.714327	82.834338	-140.078100	529.105247	64.809167	64.316185	237.086816	-144.514374	-146.136842	121.038199	10.999044	55.544901	217.787980	-192.694668	-146.039932	70.651904	-22.844819	68.314224	96.076668	-44.700056	-145.324038	66.314564	200.701487	98.918726	1497.890988	38.809658	-261.871965	1438.676809	60.145458	175.044170	1219.936343	10.812337	-282.692697	1145.501799	72.901492	84.973524	1097.707716	193.528655	-165.515669	1055.311146	269.029454
274	2.73000	-36.975982	954.214385	-26.463648	-83.824446	1512.148729	80.738696	-85.261789	1589.629824	231.837535	42.613389	955.113392	-29.889552	-116.565300	953.315387	-23.037792	86.321057	545.288967	92.287148	-141.399914	527.875499	55.443695	64.874642	235.747411	-125.693252	-147.688828	121.459110	-6.436933	56.391343	215.470471	-172.984347	-147.500245	71.679110	-41.098700	67.882725	98.468310	-23.435764	-147.589037	64.177311	182.199844	99.266229	1497.840521	37.850132	-261.229933	1438.517053	61.070175	176.175470	1220.190959	5.967784	-283.447681	1145.285789	72.033298	91.694253	1093.191478	185.804305	-167.760574	1050.344637	266.809008
275	2.74000	-36.853486	954.363102	-26.304413	-83.120216	1512.182607	81.280343	-84.031562	1589.441234	232.636424	42.700856	955.092856	-29.375792	-116.407792	953.633353	-23.233068	85.941810	546.863607	101.739958	-142.721728	526.645752	46.078223	65.433099	234.408006	-106.872129	-149.240815	121.880022	-23.872910	57.237784	213.152963	-153.274026	-148.960557	72.706315	-59.352581	67.451225	100.859951	-2.171471	-149.854036	62.040058	163.698202	99.613732	1497.790053	36.890607	-260.587901	1438.357297	61.994892	177.306770	1220.445574	1.123231	-284.202666	1145.069779	71.165104	98.414983	1088.675240	178.079956	-170.005479	1045.378128	264.588562
276	2.75000	-36.730989	954.511818	-26.145179	-82.415985	1512.216486	81.821990	-82.801335	1589.252644	233.435313	42.788323	955.072320	-28.862032	-116.250283	953.951319	-23.428344	85.562562	548.438247	111.192768	-144.043542	525.416005	36.712751	65.991556	233.068601	-88.051006	-150.792801	122.300933	-41.308887	58.084226	210.835455	-133.563705	-150.420870	73.733521	-77.606462	67.019725	103.251593	19.092821	-152.119035	59.902806	145.196559	99.961236	1497.739586	35.931081	-259.945868	1438.197541	62.919608	178.438071	1220.700190	-3.721322	-284.957650	1144.853769	70.296910	105.135712	1084.159001	170.355606	-172.250384	1040.411619	262.368117
277	2.76000	-36.608492	954.660535	-25.985945	-81.711755	1512.250364	82.363637	-81.571109	1589.064055	234.234202	42.875790	955.051784	-28.348272	-116.092775	954.269286	-23.623620	85.183315	550.012887	120.645578	-145.365356	524.186258	27.347278	66.550013	231.729196	-69.229884	-152.344787	122.721845	-58.744864	58.930668	208.517946	-113.853384	-151.881183	74.760726	-95.860342	66.588225	105.643234	40.357114	-154.384034	57.765553	126.694916	100.308739	1497.689118	34.971555	-259.303836	1438.037785	63.844325	179.569371	1220.954806	-8.565875	-285.712634	1144.637759	69.428716	111.856441	1079.642763	162.631257	-174.495288	1035.445110	260.147671
278	2.77000	-35.827056	954.701771	-25.678712	-80.403465	1512.039808	83.266783	-80.009859	1588.642004	235.425936	43.580884	955.023152	-27.711299	-115.234967	954.380392	-23.646142	85.023874	551.109455	128.213086	-145.871212	523.066104	20.533216	67.443925	229.208158	-52.779788	-153.483335	123.959201	-73.252703	60.134452	204.868226	-96.572809	-152.918237	76.899192	-111.052585	66.764521	107.064177	59.756653	-156.137580	56.276832	109.747915	101.378365	1497.367534	34.727151	-258.027836	1437.778485	64.604850	181.508652	1221.057141	-12.199167	-285.359609	1144.501230	67.527098	120.099416	1075.193212	155.273276	-176.120904	1030.225601	255.553608
279	2.78000	-35.045621	954.743008	-25.371480	-79.095174	1511.829253	84.169928	-78.448610	1588.219953	236.617669	44.285978	954.994520	-27.074326	-114.377159	954.491499	-23.668664	84.864433	552.206023	135.780594	-146.377067	521.945950	13.719153	68.337837	226.687120	-36.329692	-154.621882	125.196558	-87.760541	61.338235	201.218507	-79.292233	-153.955291	79.037657	-126.244828	66.940816	108.485121	79.156193	-157.891126	54.788112	92.800914	102.447990	1497.045950	34.482746	-256.751836	1437.519185	65.365375	183.447933	1221.159475	-15.832458	-285.006584	1144.364702	65.625479	128.342391	1070.743661	147.915295	-177.746520	1025.006092	250.959545
280	2.79000	-34.264185	954.784244	-25.064247	-77.786884	1511.618697	85.073074	-76.887361	1587.797902	237.809402	44.991072	954.965888	-26.437353	-113.519351	954.602605	-23.691186	84.704992	553.302591	143.348103	-146.882922	520.825796	6.905090	69.231750	224.166081	-19.879595	-155.760430	126.433915	-102.268379	62.542019	197.568787	-62.011658	-154.992346	81.176123	-141.437071	67.117111	109.906064	98.555733	-159.644672	53.299392	75.853913	103.517616	1496.724366	34.238342	-255.475836	1437.259885	66.125899	185.387214	1221.261810	-19.465749	-284.653559	1144.228174	63.723860	136.585366	1066.294110	140.557314	-179.372136	1019.786583	246.365481
281	2.80000	-33.482749	954.825480	-24.757015	-76.478593	1511.408141	85.976219	-75.326112	1587.375851	239.001135	45.696166	954.937256	-25.800381	-112.661543	954.713712	-23.713708	84.545551	554.399159	150.915611	-147.388777	519.705642	0.091028	70.125662	221.645043	-3.429499	-156.898978	127.671271	-116.776218	63.745803	193.919067	-44.731083	-156.029400	83.314589	-156.629314	67.293406	111.327007	117.955272	-161.398218	51.810671	58.906911	104.587242	1496.402782	33.993938	-254.199836	1437.000585	66.886424	187.326496	1221.364145	-23.099041	-284.300535	1144.091646	61.822242	144.828341	1061.844559	133.199333	-180.997752	1014.567074	241.771418
